# xmcd CD database file
#
# Track frame offsets:
#	150
#	13937
#	23852
#	34935
#	47100
#	60364
#	73937
#	84912
#	96307
#	111490
#	122493
#	134103
#	145872
#	161616
#	173082
#	182392
#	195830
#	207632
#	227042
#	243592
#	286348
#
# Disc length: 3960 seconds
#
# Revision: 2
# Processed by: cddbd v1.5.2PL0 Copyright (c) Steve Scherf et al.
# Submitted via: CDex 1.51
#
DISCID=300f7615
DTITLE=Various Artist - Northern Soul Vol. 2: 20 Original Classics
DYEAR=2012
DGENRE=Soul/R&B
TTITLE0=The Dells - Run For Cover
TTITLE1=The Temptations - Girl (Why You Wanna Make Me Blue)
TTITLE2=Mary Wells - Drop In The Bucket
TTITLE3=Martha Reeves and The Vandellas - Show Me The Way
TTITLE4=The Supremes - Love Is Like An Itching In My Heart
TTITLE5=Billy Stewart - Secret Love
TTITLE6=Joe Cato - I'm So Glad
TTITLE7=Ray Charles - I Don't Need No Doctor
TTITLE8=Nolan Porter - If I Could Only Be Sure
TTITLE9=Dusty Springfield - What's It Gonna Be
TTITLE10=Bobby Bland - Shoes
TTITLE11=The Impressions - Can't Satisfy Your Love
TTITLE12=The Kelly Brothers - Crystal Blue Persuasion
TTITLE13=The Ambers - Potion Of Love
TTITLE14=The Festivals - You Got The Makings Of A Lover
TTITLE15=Tammi Terrell - All I Do Is Think About You
TTITLE16=Yvonne Baker - You Didn't Say A Word
TTITLE17=Greg Perry - Variety Is The Spice Of Life
TTITLE18=Bobby Hutton - Lend A Hand
TTITLE19=Terry Callier - I Don't Want To See Myself (Without You)
TTITLE20=Data
EXTD=YEAR: 2012
EXTT0=
EXTT1=
EXTT2=
EXTT3=
EXTT4=
EXTT5=
EXTT6=
EXTT7=
EXTT8=
EXTT9=
EXTT10=
EXTT11=
EXTT12=
EXTT13=
EXTT14=
EXTT15=
EXTT16=
EXTT17=
EXTT18=
EXTT19=
EXTT20=
PLAYORDER=
